<svg xmlns="http://www.w3.org/2000/svg" viewBox="0 0 1600 800" fill="none">
  <defs>

    <!-- Gradients principaux -->
    <linearGradient id="grad-bg" x1="0" y1="0" x2="1600" y2="800" gradientUnits="userSpaceOnUse">
      <stop offset="0%" stop-color="#f0f4ff"/>
      <stop offset="50%" stop-color="#eef2ff"/>
      <stop offset="100%" stop-color="#f0fdf4"/>
    </linearGradient>

    <linearGradient id="grad-laptop-body" x1="480" y1="200" x2="920" y2="620" gradientUnits="userSpaceOnUse">
      <stop offset="0%" stop-color="#ffffff"/>
      <stop offset="100%" stop-color="#f1f5f9"/>
    </linearGradient>

    <linearGradient id="grad-screen" x1="490" y1="220" x2="890" y2="560" gradientUnits="userSpaceOnUse">
      <stop offset="0%" stop-color="#0f0f2e"/>
      <stop offset="100%" stop-color="#1e1b4b"/>
    </linearGradient>

    <linearGradient id="grad-bar-1" x1="0" y1="0" x2="0" y2="1" gradientUnits="objectBoundingBox">
      <stop offset="0%" stop-color="#5B47F5"/>
      <stop offset="100%" stop-color="#8b5cf6"/>
    </linearGradient>

    <linearGradient id="grad-bar-2" x1="0" y1="0" x2="0" y2="1" gradientUnits="objectBoundingBox">
      <stop offset="0%" stop-color="#7c6af7"/>
      <stop offset="100%" stop-color="#a78bfa"/>
    </linearGradient>

    <linearGradient id="grad-bar-3" x1="0" y1="0" x2="0" y2="1" gradientUnits="objectBoundingBox">
      <stop offset="0%" stop-color="#5B47F5"/>
      <stop offset="100%" stop-color="#6d58f6"/>
    </linearGradient>

    <linearGradient id="grad-line" x1="520" y1="460" x2="860" y2="310" gradientUnits="userSpaceOnUse">
      <stop offset="0%" stop-color="#22c55e"/>
      <stop offset="100%" stop-color="#4ade80"/>
    </linearGradient>

    <linearGradient id="grad-card-1" x1="0" y1="0" x2="0" y2="1" gradientUnits="objectBoundingBox">
      <stop offset="0%" stop-color="#5B47F5"/>
      <stop offset="100%" stop-color="#8b5cf6"/>
    </linearGradient>

    <linearGradient id="grad-card-sales" x1="0" y1="0" x2="1" y2="1" gradientUnits="objectBoundingBox">
      <stop offset="0%" stop-color="#5B47F5" stop-opacity="0.1"/>
      <stop offset="100%" stop-color="#8b5cf6" stop-opacity="0.05"/>
    </linearGradient>

    <linearGradient id="grad-circle-1" x1="0" y1="0" x2="1" y2="1" gradientUnits="objectBoundingBox">
      <stop offset="0%" stop-color="#5B47F5" stop-opacity="0.12"/>
      <stop offset="100%" stop-color="#8b5cf6" stop-opacity="0.06"/>
    </linearGradient>

    <linearGradient id="grad-circle-2" x1="0" y1="0" x2="1" y2="1" gradientUnits="objectBoundingBox">
      <stop offset="0%" stop-color="#22c55e" stop-opacity="0.10"/>
      <stop offset="100%" stop-color="#4ade80" stop-opacity="0.04"/>
    </linearGradient>

    <linearGradient id="grad-cart" x1="0" y1="0" x2="1" y2="1" gradientUnits="objectBoundingBox">
      <stop offset="0%" stop-color="#ffffff"/>
      <stop offset="100%" stop-color="#f8faff"/>
    </linearGradient>

    <linearGradient id="grad-badge-green" x1="0" y1="0" x2="1" y2="0" gradientUnits="objectBoundingBox">
      <stop offset="0%" stop-color="#22c55e"/>
      <stop offset="100%" stop-color="#4ade80"/>
    </linearGradient>

    <linearGradient id="grad-base" x1="400" y1="615" x2="980" y2="650" gradientUnits="userSpaceOnUse">
      <stop offset="0%" stop-color="#e0e7ff"/>
      <stop offset="50%" stop-color="#c7d2fe"/>
      <stop offset="100%" stop-color="#e0e7ff"/>
    </linearGradient>

    <!-- Drop shadows -->
    <filter id="shadow-laptop" x="-10%" y="-10%" width="120%" height="130%">
      <feDropShadow dx="0" dy="16" stdDeviation="24" flood-color="#5B47F5" flood-opacity="0.12"/>
      <feDropShadow dx="0" dy="4" stdDeviation="8" flood-color="#000000" flood-opacity="0.06"/>
    </filter>

    <filter id="shadow-card" x="-20%" y="-20%" width="140%" height="140%">
      <feDropShadow dx="0" dy="8" stdDeviation="16" flood-color="#5B47F5" flood-opacity="0.15"/>
      <feDropShadow dx="0" dy="2" stdDeviation="4" flood-color="#000000" flood-opacity="0.05"/>
    </filter>

    <filter id="shadow-float" x="-15%" y="-15%" width="130%" height="130%">
      <feDropShadow dx="0" dy="6" stdDeviation="12" flood-color="#8b5cf6" flood-opacity="0.18"/>
      <feDropShadow dx="0" dy="2" stdDeviation="4" flood-color="#000000" flood-opacity="0.04"/>
    </filter>

    <filter id="shadow-soft" x="-10%" y="-10%" width="120%" height="120%">
      <feDropShadow dx="0" dy="4" stdDeviation="8" flood-color="#000000" flood-opacity="0.07"/>
    </filter>

    <filter id="glow-green" x="-30%" y="-30%" width="160%" height="160%">
      <feDropShadow dx="0" dy="0" stdDeviation="6" flood-color="#22c55e" flood-opacity="0.4"/>
    </filter>

  </defs>

  <!-- ── FOND ─────────────────────────────────────────────────────────────── -->
  <rect width="1600" height="800" fill="url(#grad-bg)"/>

  <!-- ── FORMES GEOMETRIQUES ARRIERE-PLAN ──────────────────────────────── -->

  <!-- Cercle large gauche -->
  <circle cx="180" cy="420" r="280" fill="url(#grad-circle-1)" opacity="0.7"/>
  <circle cx="180" cy="420" r="200" fill="none" stroke="#5B47F5" stroke-width="1" opacity="0.08"/>
  <circle cx="180" cy="420" r="140" fill="none" stroke="#5B47F5" stroke-width="1" opacity="0.05"/>

  <!-- Cercle large droite -->
  <circle cx="1420" cy="360" r="260" fill="url(#grad-circle-2)" opacity="0.7"/>
  <circle cx="1420" cy="360" r="180" fill="none" stroke="#22c55e" stroke-width="1" opacity="0.08"/>

  <!-- Petits cercles decoratifs -->
  <circle cx="320" cy="140" r="12" fill="#5B47F5" opacity="0.15"/>
  <circle cx="360" cy="680" r="8" fill="#8b5cf6" opacity="0.2"/>
  <circle cx="1280" cy="680" r="14" fill="#22c55e" opacity="0.18"/>
  <circle cx="1480" cy="150" r="10" fill="#5B47F5" opacity="0.12"/>
  <circle cx="1520" cy="620" r="6" fill="#8b5cf6" opacity="0.15"/>

  <!-- Rectangles arrondis BG gauche -->
  <rect x="60" y="180" width="80" height="80" rx="20" fill="#5B47F5" opacity="0.06" transform="rotate(15 100 220)"/>
  <rect x="90" y="560" width="60" height="60" rx="16" fill="#8b5cf6" opacity="0.08" transform="rotate(-12 120 590)"/>

  <!-- Rectangles arrondis BG droite -->
  <rect x="1440" y="480" width="90" height="90" rx="22" fill="#22c55e" opacity="0.07" transform="rotate(20 1485 525)"/>
  <rect x="1320" y="160" width="70" height="70" rx="18" fill="#5B47F5" opacity="0.06" transform="rotate(-8 1355 195)"/>

  <!-- Points grille subtils -->
  <g opacity="0.12">
    <circle cx="420" cy="100" r="2" fill="#5B47F5"/>
    <circle cx="460" cy="100" r="2" fill="#5B47F5"/>
    <circle cx="500" cy="100" r="2" fill="#5B47F5"/>
    <circle cx="540" cy="100" r="2" fill="#5B47F5"/>
    <circle cx="420" cy="130" r="2" fill="#5B47F5"/>
    <circle cx="460" cy="130" r="2" fill="#5B47F5"/>
    <circle cx="500" cy="130" r="2" fill="#5B47F5"/>
    <circle cx="540" cy="130" r="2" fill="#5B47F5"/>
    <circle cx="420" cy="160" r="2" fill="#5B47F5"/>
    <circle cx="460" cy="160" r="2" fill="#5B47F5"/>
    <circle cx="500" cy="160" r="2" fill="#5B47F5"/>
    <circle cx="540" cy="160" r="2" fill="#5B47F5"/>
  </g>

  <g opacity="0.10">
    <circle cx="1060" cy="640" r="2" fill="#22c55e"/>
    <circle cx="1100" cy="640" r="2" fill="#22c55e"/>
    <circle cx="1140" cy="640" r="2" fill="#22c55e"/>
    <circle cx="1060" cy="670" r="2" fill="#22c55e"/>
    <circle cx="1100" cy="670" r="2" fill="#22c55e"/>
    <circle cx="1140" cy="670" r="2" fill="#22c55e"/>
  </g>

  <!-- ── LAPTOP ──────────────────────────────────────────────────────────── -->

  <!-- Base (ellipse ombre) -->
  <ellipse cx="690" cy="632" rx="240" ry="18" fill="url(#grad-base)" opacity="0.6"/>

  <!-- Corps laptop -->
  <g filter="url(#shadow-laptop)">

    <!-- Couvercle (ecran) -->
    <rect x="466" y="200" width="448" height="320" rx="18" fill="url(#grad-laptop-body)"/>

    <!-- Biseau ecran -->
    <rect x="474" y="208" width="432" height="304" rx="14" fill="url(#grad-screen)"/>

    <!-- ── CONTENU DASHBOARD ── -->

    <!-- Barre de titre dashboard -->
    <rect x="482" y="216" width="416" height="28" rx="0" fill="#0a0a1f" opacity="0.6"/>
    <!-- Boutons mac style -->
    <circle cx="498" cy="230" r="5" fill="#ff5f57" opacity="0.7"/>
    <circle cx="514" cy="230" r="5" fill="#febc2e" opacity="0.7"/>
    <circle cx="530" cy="230" r="5" fill="#28c840" opacity="0.7"/>
    <!-- Barre recherche mock -->
    <rect x="570" y="222" width="200" height="16" rx="8" fill="rgba(255,255,255,0.08)"/>

    <!-- Sidebar gauche -->
    <rect x="482" y="244" width="70" height="256" fill="#090915"/>
    <!-- Items sidebar -->
    <rect x="490" y="258" width="38" height="6" rx="3" fill="rgba(255,255,255,0.5)"/>
    <rect x="490" y="274" width="32" height="6" rx="3" fill="rgba(255,255,255,0.25)"/>
    <rect x="490" y="290" width="36" height="6" rx="3" fill="rgba(255,255,255,0.25)"/>
    <rect x="490" y="306" width="30" height="6" rx="3" fill="rgba(255,255,255,0.25)"/>
    <rect x="490" y="322" width="34" height="6" rx="3" fill="rgba(255,255,255,0.25)"/>

    <!-- Zone principale dashboard -->
    <rect x="552" y="244" width="342" height="256" fill="#0d0d25"/>

    <!-- Stat cards (top) -->
    <!-- Card 1 -->
    <rect x="560" y="252" width="100" height="56" rx="8" fill="rgba(91,71,245,0.18)"/>
    <rect x="568" y="260" width="40" height="4" rx="2" fill="rgba(255,255,255,0.4)"/>
    <rect x="568" y="270" width="60" height="8" rx="2" fill="#ffffff" opacity="0.9"/>
    <rect x="568" y="284" width="36" height="4" rx="2" fill="#22c55e" opacity="0.8"/>
    <circle cx="644" cy="264" r="8" fill="rgba(91,71,245,0.4)"/>

    <!-- Card 2 -->
    <rect x="668" y="252" width="100" height="56" rx="8" fill="rgba(139,92,246,0.18)"/>
    <rect x="676" y="260" width="40" height="4" rx="2" fill="rgba(255,255,255,0.4)"/>
    <rect x="676" y="270" width="52" height="8" rx="2" fill="#ffffff" opacity="0.9"/>
    <rect x="676" y="284" width="44" height="4" rx="2" fill="#22c55e" opacity="0.8"/>
    <circle cx="752" cy="264" r="8" fill="rgba(139,92,246,0.4)"/>

    <!-- Card 3 -->
    <rect x="776" y="252" width="108" height="56" rx="8" fill="rgba(34,197,94,0.12)"/>
    <rect x="784" y="260" width="40" height="4" rx="2" fill="rgba(255,255,255,0.4)"/>
    <rect x="784" y="270" width="56" height="8" rx="2" fill="#22c55e" opacity="0.9"/>
    <rect x="784" y="284" width="40" height="4" rx="2" fill="rgba(255,255,255,0.4)"/>
    <circle cx="868" cy="264" r="8" fill="rgba(34,197,94,0.3)"/>

    <!-- Zone graphique barres -->
    <rect x="560" y="318" width="200" height="122" rx="8" fill="rgba(255,255,255,0.04)"/>
    <!-- Titre graphique -->
    <rect x="570" y="328" width="60" height="4" rx="2" fill="rgba(255,255,255,0.35)"/>
    <!-- Axe Y -->
    <line x1="580" y1="340" x2="580" y2="428" stroke="rgba(255,255,255,0.08)" stroke-width="1"/>
    <!-- Axe X -->
    <line x1="580" y1="428" x2="748" y2="428" stroke="rgba(255,255,255,0.08)" stroke-width="1"/>
    <!-- Barres -->
    <rect x="590" y="402" width="18" height="26" rx="3" fill="url(#grad-bar-2)" opacity="0.7"/>
    <rect x="614" y="388" width="18" height="40" rx="3" fill="url(#grad-bar-2)" opacity="0.7"/>
    <rect x="638" y="372" width="18" height="56" rx="3" fill="url(#grad-bar-1)"/>
    <rect x="662" y="358" width="18" height="70" rx="3" fill="url(#grad-bar-1)"/>
    <rect x="686" y="342" width="18" height="86" rx="3" fill="url(#grad-bar-3)"/>
    <rect x="710" y="350" width="18" height="78" rx="3" fill="url(#grad-bar-1)"/>
    <rect x="734" y="338" width="7" height="90" rx="3" fill="url(#grad-bar-3)" opacity="0.5"/>

    <!-- Zone courbe droite -->
    <rect x="768" y="318" width="116" height="122" rx="8" fill="rgba(255,255,255,0.04)"/>
    <rect x="778" y="328" width="50" height="4" rx="2" fill="rgba(255,255,255,0.35)"/>
    <!-- Ligne de courbe croissance -->
    <polyline
      points="778,418 798,408 818,396 838,380 858,360 872,344"
      fill="none"
      stroke="url(#grad-line)"
      stroke-width="2.5"
      stroke-linecap="round"
      stroke-linejoin="round"
      filter="url(#glow-green)"
    />
    <!-- Zone remplie sous la courbe -->
    <path
      d="M778,418 798,408 818,396 838,380 858,360 872,344 872,430 778,430 Z"
      fill="url(#grad-line)"
      opacity="0.08"
    />
    <!-- Dot sur le pic -->
    <circle cx="872" cy="344" r="4" fill="#22c55e" filter="url(#glow-green)"/>
    <circle cx="872" cy="344" r="2" fill="#ffffff"/>

    <!-- Labels axe X petits -->
    <rect x="590" y="433" width="12" height="3" rx="1.5" fill="rgba(255,255,255,0.2)"/>
    <rect x="614" y="433" width="12" height="3" rx="1.5" fill="rgba(255,255,255,0.2)"/>
    <rect x="638" y="433" width="12" height="3" rx="1.5" fill="rgba(255,255,255,0.2)"/>
    <rect x="662" y="433" width="12" height="3" rx="1.5" fill="rgba(255,255,255,0.2)"/>
    <rect x="686" y="433" width="12" height="3" rx="1.5" fill="rgba(255,255,255,0.2)"/>
    <rect x="710" y="433" width="12" height="3" rx="1.5" fill="rgba(255,255,255,0.2)"/>

    <!-- Clavier du laptop -->
    <rect x="470" y="524" width="440" height="104" rx="16" fill="url(#grad-laptop-body)"/>
    <!-- Pave tactile -->
    <rect x="640" y="548" width="100" height="58" rx="8" fill="#e8eaf0" opacity="0.7"/>
    <!-- Rangees touches -->
    <g opacity="0.5">
      <!-- Rangee 1 -->
      <rect x="484" y="530" width="18" height="8" rx="2" fill="#d1d5db"/>
      <rect x="506" y="530" width="18" height="8" rx="2" fill="#d1d5db"/>
      <rect x="528" y="530" width="18" height="8" rx="2" fill="#d1d5db"/>
      <rect x="550" y="530" width="18" height="8" rx="2" fill="#d1d5db"/>
      <rect x="572" y="530" width="18" height="8" rx="2" fill="#d1d5db"/>
      <rect x="594" y="530" width="18" height="8" rx="2" fill="#d1d5db"/>
      <rect x="616" y="530" width="18" height="8" rx="2" fill="#d1d5db"/>
      <!-- Rangee 2 -->
      <rect x="484" y="542" width="14" height="8" rx="2" fill="#d1d5db"/>
      <rect x="502" y="542" width="14" height="8" rx="2" fill="#d1d5db"/>
      <rect x="520" y="542" width="14" height="8" rx="2" fill="#d1d5db"/>
      <rect x="538" y="542" width="14" height="8" rx="2" fill="#d1d5db"/>
      <rect x="556" y="542" width="14" height="8" rx="2" fill="#d1d5db"/>
      <rect x="574" y="542" width="14" height="8" rx="2" fill="#d1d5db"/>
      <rect x="592" y="542" width="14" height="8" rx="2" fill="#d1d5db"/>
      <rect x="610" y="542" width="14" height="8" rx="2" fill="#d1d5db"/>
    </g>

  </g>

  <!-- ── ELEMENTS FLOTTANTS ─────────────────────────────────────────────── -->

  <!-- === CARTE PANIER (haut gauche) === -->
  <g transform="translate(260, 180)" filter="url(#shadow-card)">
    <rect width="160" height="80" rx="16" fill="url(#grad-cart)"/>
    <rect width="160" height="80" rx="16" fill="none" stroke="#e0e7ff" stroke-width="1"/>
    <!-- Icone panier -->
    <circle cx="28" cy="28" r="16" fill="#eef2ff"/>
    <!-- Panier simplifie -->
    <path d="M20 22 L24 18 L36 18 L40 22" stroke="#5B47F5" stroke-width="2" stroke-linecap="round" fill="none"/>
    <rect x="20" y="22" width="20" height="14" rx="3" fill="none" stroke="#5B47F5" stroke-width="2"/>
    <circle cx="25" cy="38" r="2" fill="#5B47F5"/>
    <circle cx="35" cy="38" r="2" fill="#5B47F5"/>
    <!-- Texte mock -->
    <rect x="52" y="18" width="60" height="5" rx="2.5" fill="#1e1b4b" opacity="0.7"/>
    <rect x="52" y="28" width="44" height="4" rx="2" fill="#6b7280" opacity="0.5"/>
    <!-- Badge montant -->
    <rect x="14" y="48" width="68" height="20" rx="10" fill="url(#grad-card-1)"/>
    <rect x="26" y="53" width="44" height="10" rx="3" fill="rgba(255,255,255,0.9)"/>
  </g>

  <!-- === CARTE ETOILES / AVIS (bas gauche) === -->
  <g transform="translate(220, 460)" filter="url(#shadow-float)">
    <rect width="180" height="72" rx="14" fill="white"/>
    <rect width="180" height="72" rx="14" fill="none" stroke="#f0f0f8" stroke-width="1"/>
    <!-- Avatar mock -->
    <circle cx="26" cy="36" r="18" fill="#eef2ff"/>
    <circle cx="26" cy="30" r="8" fill="#c7d2fe"/>
    <ellipse cx="26" cy="50" rx="12" ry="8" fill="#c7d2fe"/>
    <!-- Etoiles -->
    <g fill="#f59e0b">
      <path d="M54 26 L56 32 L62 32 L57 36 L59 42 L54 38 L49 42 L51 36 L46 32 L52 32 Z" transform="scale(0.7) translate(20, 12)"/>
      <path d="M54 26 L56 32 L62 32 L57 36 L59 42 L54 38 L49 42 L51 36 L46 32 L52 32 Z" transform="scale(0.7) translate(36, 12)"/>
      <path d="M54 26 L56 32 L62 32 L57 36 L59 42 L54 38 L49 42 L51 36 L46 32 L52 32 Z" transform="scale(0.7) translate(52, 12)"/>
      <path d="M54 26 L56 32 L62 32 L57 36 L59 42 L54 38 L49 42 L51 36 L46 32 L52 32 Z" transform="scale(0.7) translate(68, 12)"/>
      <path d="M54 26 L56 32 L62 32 L57 36 L59 42 L54 38 L49 42 L51 36 L46 32 L52 32 Z" transform="scale(0.7) translate(84, 12)"/>
    </g>
    <!-- Texte -->
    <rect x="52" y="44" width="80" height="4" rx="2" fill="#6b7280" opacity="0.4"/>
    <rect x="52" y="52" width="56" height="4" rx="2" fill="#6b7280" opacity="0.3"/>
  </g>

  <!-- === BADGE CONVERSION +38% (droite haute) === -->
  <g transform="translate(1060, 200)" filter="url(#shadow-float)">
    <rect width="160" height="72" rx="14" fill="white"/>
    <rect width="160" height="72" rx="14" fill="none" stroke="#dcfce7" stroke-width="1.5"/>
    <!-- Fleche croissance -->
    <circle cx="32" cy="36" r="20" fill="#f0fdf4"/>
    <path d="M22 44 L28 36 L34 40 L40 28" stroke="#22c55e" stroke-width="2.5" stroke-linecap="round" stroke-linejoin="round" fill="none"/>
    <polygon points="40,28 44,36 36,34" fill="#22c55e"/>
    <!-- Texte conversion -->
    <rect x="60" y="22" width="72" height="5" rx="2.5" fill="#166534" opacity="0.6"/>
    <!-- +38% -->
    <rect x="60" y="34" width="60" height="12" rx="4" fill="#22c55e" opacity="0.15"/>
    <rect x="66" y="37" width="48" height="6" rx="3" fill="#16a34a" opacity="0.7"/>
    <rect x="60" y="52" width="50" height="4" rx="2" fill="#6b7280" opacity="0.3"/>
  </g>

  <!-- === CARTE VENTES (droite bas) === -->
  <g transform="translate(1040, 460)" filter="url(#shadow-card)">
    <rect width="200" height="100" rx="16" fill="white"/>
    <rect width="200" height="100" rx="16" fill="none" stroke="#e0e7ff" stroke-width="1"/>
    <!-- Header -->
    <rect x="16" y="16" width="60" height="5" rx="2.5" fill="#1e1b4b" opacity="0.6"/>
    <!-- Mini sparkline -->
    <polyline
      points="16,72 36,64 56,68 76,52 96,44 116,36 136,28"
      fill="none"
      stroke="#5B47F5"
      stroke-width="2"
      stroke-linecap="round"
      stroke-linejoin="round"
    />
    <path d="M16,72 36,64 56,68 76,52 96,44 116,36 136,28 136,80 16,80 Z" fill="#5B47F5" opacity="0.06"/>
    <!-- Valeur -->
    <rect x="148" y="16" width="36" height="16" rx="8" fill="url(#grad-badge-green)"/>
    <rect x="154" y="20" width="24" height="8" rx="4" fill="rgba(255,255,255,0.85)"/>
    <!-- Labels -->
    <rect x="16" y="84" width="30" height="4" rx="2" fill="#9ca3af" opacity="0.5"/>
    <rect x="50" y="84" width="30" height="4" rx="2" fill="#9ca3af" opacity="0.5"/>
    <rect x="84" y="84" width="30" height="4" rx="2" fill="#9ca3af" opacity="0.5"/>
  </g>

  <!-- === BADGE IA FLASH (centre haut) === -->
  <g transform="translate(600, 120)" filter="url(#shadow-soft)">
    <rect width="180" height="42" rx="21" fill="white"/>
    <rect width="180" height="42" rx="21" fill="none" stroke="#e0e7ff" stroke-width="1.5"/>
    <!-- Eclair IA -->
    <circle cx="21" cy="21" r="14" fill="#eef2ff"/>
    <path d="M17 16 L13 22 L19 22 L15 28 L23 20 L17 20 Z" fill="#5B47F5"/>
    <!-- Texte mock -->
    <rect x="44" y="14" width="80" height="5" rx="2.5" fill="#1e1b4b" opacity="0.65"/>
    <rect x="44" y="24" width="56" height="4" rx="2" fill="#8b5cf6" opacity="0.5"/>
  </g>

  <!-- ── LIGNE DE CONNEXION (trait pointille suggerant le flux) ───────── -->
  <line x1="420" y1="220" x2="467" y2="300" stroke="#5B47F5" stroke-width="1.5" stroke-dasharray="6,4" opacity="0.25"/>
  <line x1="400" y1="500" x2="467" y2="430" stroke="#8b5cf6" stroke-width="1.5" stroke-dasharray="6,4" opacity="0.20"/>
  <line x1="1100" y1="240" x2="912" y2="320" stroke="#22c55e" stroke-width="1.5" stroke-dasharray="6,4" opacity="0.22"/>
  <line x1="1100" y1="500" x2="912" y2="450" stroke="#5B47F5" stroke-width="1.5" stroke-dasharray="6,4" opacity="0.18"/>
  <line x1="690" y1="162" x2="690" y2="202" stroke="#5B47F5" stroke-width="1.5" stroke-dasharray="6,4" opacity="0.22"/>

  <!-- ── PETITES PARTICULES (ambiance tech) ────────────────────────────── -->
  <circle cx="160" cy="300" r="3" fill="#5B47F5" opacity="0.3"/>
  <circle cx="200" cy="340" r="2" fill="#8b5cf6" opacity="0.25"/>
  <circle cx="140" cy="360" r="2" fill="#5B47F5" opacity="0.2"/>
  <circle cx="1400" cy="260" r="3" fill="#22c55e" opacity="0.3"/>
  <circle cx="1460" cy="300" r="2" fill="#4ade80" opacity="0.25"/>
  <circle cx="1380" cy="310" r="2" fill="#22c55e" opacity="0.2"/>
  <circle cx="900" cy="680" r="3" fill="#5B47F5" opacity="0.2"/>
  <circle cx="940" cy="700" r="2" fill="#8b5cf6" opacity="0.15"/>

</svg>
